<svg width="200" height="70" viewBox="0 0 200 70" fill="none" xmlns="http://www.w3.org/2000/svg">
<rect width="200" height="70" fill="#802FBF" fill-opacity="0.75"/>
<path d="M32.1376 38.244V33.156L54.7936 22.068V29.46L41.4016 35.748L54.7936 41.988V49.38L32.1376 38.244ZM58.8319 17.748H82.1119V23.844H66.1279V31.62H77.8879V37.476H66.1279V45.204H82.1119V51.3H58.8319V17.748ZM84.4501 17.748H92.2261L101.442 41.604L110.706 17.748H118.434L105.042 51.3H97.8901L84.4501 17.748ZM128.959 52.02C126.911 52.02 124.879 51.828 122.863 51.444C120.847 51.06 119.199 50.548 117.919 49.908V43.476C119.615 44.308 121.375 44.932 123.199 45.348C125.023 45.764 126.767 45.972 128.431 45.972C130.287 45.972 131.695 45.652 132.655 45.012C133.615 44.372 134.095 43.476 134.095 42.324C134.095 41.492 133.855 40.788 133.375 40.212C132.895 39.636 132.191 39.124 131.263 38.676C130.367 38.196 128.975 37.572 127.087 36.804C123.951 35.524 121.679 34.1 120.271 32.532C118.863 30.932 118.159 28.964 118.159 26.628C118.159 24.74 118.671 23.076 119.695 21.636C120.719 20.164 122.159 19.028 124.015 18.228C125.871 17.428 128.015 17.028 130.447 17.028C132.431 17.028 134.191 17.188 135.727 17.508C137.263 17.828 138.767 18.324 140.239 18.996V25.236C137.423 23.828 134.607 23.124 131.791 23.124C129.999 23.124 128.591 23.444 127.567 24.084C126.543 24.692 126.031 25.572 126.031 26.724C126.031 27.556 126.271 28.244 126.751 28.788C127.231 29.332 127.903 29.812 128.767 30.228C129.631 30.644 131.039 31.252 132.991 32.052C135.263 33.012 137.039 33.94 138.319 34.836C139.599 35.7 140.543 36.74 141.151 37.956C141.759 39.14 142.063 40.612 142.063 42.372C142.063 45.412 140.959 47.78 138.751 49.476C136.575 51.172 133.311 52.02 128.959 52.02ZM145.2 41.988L158.592 35.748L145.2 29.46V22.068L167.856 33.156V38.244L145.2 49.38V41.988Z" fill="white"/>
</svg>
