<svg width="200" height="100" viewBox="0 0 200 100" fill="none" xmlns="http://www.w3.org/2000/svg">
<rect width="200" height="100" fill="#A165D0"/>
<path d="M32.1376 52.944V47.856L54.7936 36.768V44.16L41.4016 50.448L54.7936 56.688V64.08L32.1376 52.944ZM58.8319 32.448H82.1119V38.544H66.1279V46.32H77.8879V52.176H66.1279V59.904H82.1119V66H58.8319V32.448ZM84.4501 32.448H92.2261L101.442 56.304L110.706 32.448H118.434L105.042 66H97.8901L84.4501 32.448ZM128.959 66.72C126.911 66.72 124.879 66.528 122.863 66.144C120.847 65.76 119.199 65.248 117.919 64.608V58.176C119.615 59.008 121.375 59.632 123.199 60.048C125.023 60.464 126.767 60.672 128.431 60.672C130.287 60.672 131.695 60.352 132.655 59.712C133.615 59.072 134.095 58.176 134.095 57.024C134.095 56.192 133.855 55.488 133.375 54.912C132.895 54.336 132.191 53.824 131.263 53.376C130.367 52.896 128.975 52.272 127.087 51.504C123.951 50.224 121.679 48.8 120.271 47.232C118.863 45.632 118.159 43.664 118.159 41.328C118.159 39.44 118.671 37.776 119.695 36.336C120.719 34.864 122.159 33.728 124.015 32.928C125.871 32.128 128.015 31.728 130.447 31.728C132.431 31.728 134.191 31.888 135.727 32.208C137.263 32.528 138.767 33.024 140.239 33.696V39.936C137.423 38.528 134.607 37.824 131.791 37.824C129.999 37.824 128.591 38.144 127.567 38.784C126.543 39.392 126.031 40.272 126.031 41.424C126.031 42.256 126.271 42.944 126.751 43.488C127.231 44.032 127.903 44.512 128.767 44.928C129.631 45.344 131.039 45.952 132.991 46.752C135.263 47.712 137.039 48.64 138.319 49.536C139.599 50.4 140.543 51.44 141.151 52.656C141.759 53.84 142.063 55.312 142.063 57.072C142.063 60.112 140.959 62.48 138.751 64.176C136.575 65.872 133.311 66.72 128.959 66.72ZM145.2 56.688L158.592 50.448L145.2 44.16V36.768L167.856 47.856V52.944L145.2 64.08V56.688Z" fill="white"/>
</svg>
